<svg width="345" height="72" viewBox="0 0 8312 1725" fill="none" xmlns="http://www.w3.org/2000/svg">
<path d="M6918.88 1723.56C6874.21 1723.56 6838 1687.35 6838 1642.68V1065.7C6838 941.407 6866.61 827.963 6923.82 725.371C6983.01 622.779 7067.85 540.902 7178.33 479.741C7288.81 418.58 7421 388 7574.89 388C7730.75 388 7862.94 418.58 7971.45 479.741C8081.93 540.902 8165.78 622.779 8223 725.371C8282.19 827.963 8311.78 941.407 8311.78 1065.7V1642.68C8311.78 1687.35 8275.57 1723.56 8230.9 1723.56H7987.22C7942.55 1723.56 7906.34 1687.35 7906.34 1642.68V1065.7C7906.34 1004.54 7891.54 949.299 7861.95 899.975C7832.36 848.679 7791.91 808.234 7740.62 778.64C7691.29 749.046 7636.05 734.249 7574.89 734.249C7513.73 734.249 7457.5 749.046 7406.2 778.64C7356.88 808.234 7317.42 848.679 7287.83 899.975C7258.23 949.299 7243.44 1004.54 7243.44 1065.7V1642.68C7243.44 1687.35 7207.23 1723.56 7162.56 1723.56H6918.88Z" fill="#F2F2F2"/>
<path d="M5082.15 1723.61H4817.54C4776.27 1723.61 4744.71 1692.05 4744.71 1650.78V526.794C4744.71 485.525 4776.27 453.966 4817.54 453.966H5082.15C5123.42 453.966 5154.98 485.525 5154.98 526.794V1650.78C5154.98 1692.05 5123.42 1723.61 5082.15 1723.61ZM4739.86 177.217V135.947C4739.86 50.9802 4790.84 0 4875.8 0H5023.89C5108.85 0 5159.83 50.9802 5159.83 135.947V177.217C5159.83 262.183 5108.85 313.164 5023.89 313.164H4875.8C4790.84 313.164 4739.86 262.183 4739.86 177.217Z" fill="white"/>
<path d="M4578.86 473.829V653.473C4578.86 694.742 4547.3 726.302 4506.03 726.302H4467.19C4411.35 726.302 4348.23 719.019 4285.11 719.019C4163.73 719.019 4066.63 789.42 3979.23 893.808V1651.23C3979.23 1692.5 3947.67 1724.06 3906.4 1724.06H3641.79C3600.52 1724.06 3568.96 1692.5 3568.96 1651.23V498.105C3568.96 456.835 3600.52 425.276 3641.79 425.276H3906.4C3947.67 425.276 3979.23 456.835 3979.23 498.105V573.361C4115.18 473.829 4238.99 401 4506.03 401C4547.3 401 4578.86 432.559 4578.86 473.829Z" fill="white"/>
<path d="M3335.14 1175.69H2441.77C2458.76 1369.9 2546.16 1454.87 2745.22 1454.87C2847.18 1454.87 2937.01 1425.73 2978.28 1374.75C3009.83 1335.91 3053.53 1311.64 3114.22 1311.64H3291.44C3332.71 1311.64 3364.27 1343.19 3364.27 1384.46C3364.27 1636.94 3104.51 1724.33 2716.09 1724.33C2283.97 1724.33 2024.22 1491.28 2024.22 1051.88C2024.22 614.907 2286.4 377 2716.09 377C3148.21 377 3407.96 607.624 3407.96 1034.89V1102.86C3407.96 1144.13 3376.41 1175.69 3335.14 1175.69ZM2716.09 646.466C2541.3 646.466 2449.05 743.571 2439.34 925.643H2990.41C2983.13 743.571 2895.74 646.466 2716.09 646.466Z" fill="white"/>
<path d="M1012.14 1411.25V1681.94C1012.14 1705.39 993.126 1724.4 969.672 1724.4H42.4665C19.0129 1724.4 0 1705.39 0 1681.94V43.4665C0 20.0129 18.8213 1 42.2749 1H1061.15C1063.35 1 1065.19 1.18105 1067.37 1.52696C1728.38 106.661 1872.15 580.714 1862.8 838.342C1862.01 860.09 1843.64 876.38 1821.88 876.38H1554.69C1528.45 876.38 1508 852.651 1506.98 826.429C1504.3 757.326 1479.59 649.46 1395.14 548.112C1285.71 416.806 1128.81 373.35 1064.03 368.035H405.463C382.009 368.035 362.996 387.048 362.996 410.502V1326.31C362.996 1349.77 382.009 1368.78 405.463 1368.78H969.672C993.126 1368.78 1012.14 1387.79 1012.14 1411.25Z" fill="#01A7FA"/>
<path fill-rule="evenodd" clip-rule="evenodd" d="M711.246 699.998C711.246 676.544 730.259 657.531 753.713 657.531H1079.11C1102.57 657.531 1121.58 676.544 1121.58 699.998V975.232L1333.52 1149.94H1817.7C1841.16 1149.94 1860.17 1168.95 1860.17 1192.41V1681.94C1860.17 1705.39 1841.16 1724.41 1817.71 1724.41H1300.81C1277.36 1724.41 1258.35 1705.39 1258.35 1681.94V1257.62L1028.16 1067.87H753.713C730.259 1067.87 711.246 1048.85 711.246 1025.4V699.998Z" fill="#F2F2F2"/>
<rect x="5946.86" y="367.834" width="104.752" height="545.272" rx="52.3761" fill="#F2F2F2" stroke="#F2F2F2" stroke-width="140.293"/>
<path d="M6202.24 583.987C6240.8 496.297 6345.16 454.979 6420.24 514.479C6495.2 573.885 6557.27 648.897 6601.72 735.062C6672.89 873.039 6694.56 1031.26 6663.1 1183.29C6631.65 1335.32 6548.98 1471.96 6428.91 1570.37C6308.83 1668.78 6158.62 1723 6003.37 1723.99C5848.12 1724.97 5697.24 1672.65 5575.93 1575.76C5454.62 1478.88 5370.23 1343.3 5336.85 1191.68C5303.48 1040.06 5323.15 881.577 5392.57 742.711C5435.92 655.99 5497.04 580.2 5571.24 519.849C5645.56 459.405 5750.43 499.399 5790.1 586.594C5829.77 673.789 5785.22 775.515 5729.56 853.478C5719.56 867.471 5710.63 882.292 5702.86 897.831C5668.96 965.653 5659.35 1043.06 5675.65 1117.11C5691.95 1191.16 5733.17 1257.38 5792.41 1304.69C5851.66 1352.01 5925.35 1377.57 6001.18 1377.09C6077 1376.61 6150.36 1350.12 6209.01 1302.06C6267.65 1254 6308.03 1187.26 6323.39 1113.01C6338.75 1038.76 6328.17 961.483 6293.41 894.096C6285.44 878.656 6276.32 863.949 6266.15 850.083C6209.51 772.831 6163.67 671.677 6202.24 583.987Z" fill="#01A7FA"/>
</svg>
