<svg width="351" height="325" viewBox="0 0 351 325" fill="none" xmlns="http://www.w3.org/2000/svg">
<path d="M190.67 265.668V316.661C190.67 321.079 187.089 324.661 182.67 324.661H8C3.58172 324.661 0 321.079 0 316.661V8C0 3.58172 3.54561 0 7.96389 0H199.903C200.318 0 200.665 0.0341066 201.074 0.0992706C325.598 19.9047 352.683 109.209 350.921 157.741C350.772 161.838 347.312 164.907 343.213 164.907H292.878C287.935 164.907 284.082 160.437 283.89 155.497C283.385 142.48 278.731 122.159 262.821 103.067C242.208 78.331 212.648 70.1446 200.446 69.1434H76.3826C71.9643 69.1434 68.3826 72.7252 68.3826 77.1434V249.668C68.3826 254.086 71.9643 257.668 76.3826 257.668H182.67C187.089 257.668 190.67 261.249 190.67 265.668Z" fill="#01A7FA"/>
<path fill-rule="evenodd" clip-rule="evenodd" d="M133.987 131.68C133.987 127.262 137.569 123.68 141.987 123.68H203.288C207.706 123.68 211.288 127.262 211.288 131.68V183.528L251.214 216.441H342.428C346.846 216.441 350.428 220.022 350.428 224.441V316.661C350.428 321.079 346.846 324.661 342.428 324.661H245.054C240.636 324.661 237.054 321.079 237.054 316.661V236.726L193.691 200.981H141.987C137.569 200.981 133.987 197.399 133.987 192.981V131.68Z" fill="#F2F2F2"/>
</svg>
